REM DIRINDEX 1\4,1\2\5,1\2\6,1\3\7,1\3\8,1\3\9,1\3\10
REM DIRNAME cjc107,folder01,folder02,folder03,folder04,folder05,folder06,folder07,folder08,folder09
TITLE ""
FILE "DISC2Track35.mp3" MP3
  TRACK 01 AUDIO
    TITLE "0:"
    INDEX 01 00:00:00
  TRACK 02 AUDIO
    TITLE "7:cjc107_2135"
    INDEX 01 00:00:01
  TRACK 03 AUDIO
    TITLE "0:"
    INDEX 01 00:03:37
  TRACK 04 AUDIO
    TITLE "8:cjc107_2136"
    INDEX 01 00:04:48
  TRACK 05 AUDIO
    TITLE "0:"
    INDEX 01 00:05:65
  TRACK 06 AUDIO
    TITLE "9:cjc107_2137"
    INDEX 01 00:05:67
  TRACK 07 AUDIO
    TITLE "0:"
    INDEX 01 00:09:00
  TRACK 08 AUDIO
    TITLE "8:cjc107_2138"
    INDEX 01 00:09:49
  TRACK 09 AUDIO
    TITLE "0:"
    INDEX 01 00:10:51
  TRACK 10 AUDIO
    TITLE "9:cjc107_2139"
    INDEX 01 00:10:53
  TRACK 11 AUDIO
    TITLE "0:"
    INDEX 01 00:12:12
  TRACK 12 AUDIO
    TITLE "8:cjc107_2140"
    INDEX 01 00:12:58
  TRACK 13 AUDIO
    TITLE "0:"
    INDEX 01 00:14:04
  TRACK 14 AUDIO
    TITLE "9:cjc107_2141"
    INDEX 01 00:14:21
  TRACK 15 AUDIO
    TITLE "0:"
    INDEX 01 00:15:36
  TRACK 16 AUDIO
    TITLE "8:cjc107_2142"
    INDEX 01 00:16:08
  TRACK 17 AUDIO
    TITLE "0:"
    INDEX 01 00:17:14
  TRACK 18 AUDIO
    TITLE "9:cjc107_2143"
    INDEX 01 00:17:33
  TRACK 19 AUDIO
    TITLE "0:"
    INDEX 01 00:20:04
  TRACK 20 AUDIO
    TITLE "8:cjc107_2144"
    INDEX 01 00:20:53
  TRACK 21 AUDIO
    TITLE "0:"
    INDEX 01 00:22:36
  TRACK 22 AUDIO
    TITLE "9:cjc107_2145"
    INDEX 01 00:22:42
  TRACK 23 AUDIO
    TITLE "0:"
    INDEX 01 00:25:07
  TRACK 24 AUDIO
    TITLE "8:cjc107_2146"
    INDEX 01 00:25:58
  TRACK 25 AUDIO
    TITLE "0:"
    INDEX 01 00:27:10
  TRACK 26 AUDIO
    TITLE "9:cjc107_2147"
    INDEX 01 00:27:30
  TRACK 27 AUDIO
    TITLE "0:"
    INDEX 01 00:28:72
  TRACK 28 AUDIO
    TITLE "8:cjc107_2148"
    INDEX 01 00:29:46
  TRACK 29 AUDIO
    TITLE "0:"
    INDEX 01 00:30:67
  TRACK 30 AUDIO
    TITLE "9:cjc107_2149"
    INDEX 01 00:31:00
  TRACK 31 AUDIO
    TITLE "0:"
    INDEX 01 00:32:05
  TRACK 32 AUDIO
    TITLE "8:cjc107_2150"
    INDEX 01 00:32:47
  TRACK 33 AUDIO
    TITLE "0:"
    INDEX 01 00:34:26
  TRACK 34 AUDIO
    TITLE "9:cjc107_2151"
    INDEX 01 00:34:36
  TRACK 35 AUDIO
    TITLE "0:"
    INDEX 01 00:36:46
  TRACK 36 AUDIO
    TITLE "8:cjc107_2152"
    INDEX 01 00:37:18
  TRACK 37 AUDIO
    TITLE "0:"
    INDEX 01 00:38:65
  TRACK 38 AUDIO
    TITLE "9:cjc107_2153"
    INDEX 01 00:39:00
  TRACK 39 AUDIO
    TITLE "0:"
    INDEX 01 00:40:13
  TRACK 40 AUDIO
    TITLE "8:cjc107_2154"
    INDEX 01 00:40:66
  TRACK 41 AUDIO
    TITLE "0:"
    INDEX 01 00:41:69
  TRACK 42 AUDIO
    TITLE "9:cjc107_2155"
    INDEX 01 00:42:12
  TRACK 43 AUDIO
    TITLE "0:"
    INDEX 01 00:44:28
  TRACK 44 AUDIO
    TITLE "8:cjc107_2156"
    INDEX 01 00:45:00
  TRACK 45 AUDIO
    TITLE "0:"
    INDEX 01 00:46:07
  TRACK 46 AUDIO
    TITLE "9:cjc107_2157"
    INDEX 01 00:46:19
  TRACK 47 AUDIO
    TITLE "0:"
    INDEX 01 00:48:65
  TRACK 48 AUDIO
    TITLE "8:cjc107_2158"
    INDEX 01 00:49:37
  TRACK 49 AUDIO
    TITLE "0:"
    INDEX 01 00:50:44
  TRACK 50 AUDIO
    TITLE "9:cjc107_2159"
    INDEX 01 00:50:56
  TRACK 51 AUDIO
    TITLE "0:"
    INDEX 01 00:53:17
  TRACK 52 AUDIO
    TITLE "10:cjc107_2160"
    INDEX 01 00:54:68
  TRACK 53 AUDIO
    TITLE "10:cjc107_2161"
    INDEX 01 00:58:24
  TRACK 54 AUDIO
    TITLE "10:cjc107_2162"
    INDEX 01 01:01:21
  TRACK 55 AUDIO
    TITLE "10:cjc107_2163"
    INDEX 01 01:08:64
  TRACK 56 AUDIO
    TITLE "10:cjc107_2164"
    INDEX 01 01:11:31
  TRACK 57 AUDIO
    TITLE "10:cjc107_2165"
    INDEX 01 01:16:50
  TRACK 58 AUDIO
    TITLE "10:cjc107_2166"
    INDEX 01 01:24:24
  TRACK 59 AUDIO
    TITLE "0:"
    INDEX 01 01:30:30
